<svg width="28" height="26" viewBox="0 0 28 26" fill="none" xmlns="http://www.w3.org/2000/svg">
<g clip-path="url(#clip0_3_35)">
<path d="M18.0833 15.1667H17.1617L16.835 14.8742C17.9783 13.6392 18.6667 12.0358 18.6667 10.2917C18.6667 6.4025 15.2717 3.25 11.0833 3.25C6.895 3.25 3.5 6.4025 3.5 10.2917C3.5 14.1808 6.895 17.3333 11.0833 17.3333C12.9617 17.3333 14.6883 16.6942 16.0183 15.6325L16.3333 15.9358V16.7917L22.1667 22.1975L23.905 20.5833L18.0833 15.1667ZM11.0833 15.1667C8.17833 15.1667 5.83333 12.9892 5.83333 10.2917C5.83333 7.59417 8.17833 5.41667 11.0833 5.41667C13.9883 5.41667 16.3333 7.59417 16.3333 10.2917C16.3333 12.9892 13.9883 15.1667 11.0833 15.1667Z" fill="#878686"/>
</g>
<defs>
<clipPath id="clip0_3_35">
<rect width="28" height="26" fill="white"/>
</clipPath>
</defs>
</svg>
